<?xml version="1.0" standalone="no"?>
<!DOCTYPE svg PUBLIC "-//W3C//DTD SVG 20010904//EN"
 "http://www.w3.org/TR/2001/REC-SVG-20010904/DTD/svg10.dtd">
<svg version="1.0" xmlns="http://www.w3.org/2000/svg"
 width="700.000000pt" height="700.000000pt" viewBox="0 0 700.000000 700.000000"
 preserveAspectRatio="xMidYMid meet">
<metadata>
Created by potrace 1.11, written by Peter Selinger 2001-2013
</metadata>
<g transform="translate(0.000000,700.000000) scale(0.100000,-0.100000)"
fill="#000000" stroke="none">
<path d="M3356 6809 c-42 -36 -56 -79 -56 -169 0 -86 -22 -122 -93 -154 -35
-15 -67 -40 -94 -73 -39 -46 -49 -52 -135 -77 -116 -35 -158 -56 -193 -98 -43
-51 -53 -55 -184 -82 -136 -29 -187 -48 -244 -94 -52 -42 -107 -58 -277 -82
-162 -23 -282 -56 -363 -100 l-55 -29 -26 33 c-14 19 -49 46 -78 60 -46 23
-64 26 -152 26 -160 0 -194 -31 -207 -188 -8 -84 -6 -106 11 -165 18 -59 29
-76 93 -140 98 -99 212 -193 265 -218 29 -14 81 -25 158 -33 99 -9 119 -14
140 -35 l25 -24 -3 -381 c-4 -368 -5 -383 -27 -443 -14 -38 -30 -64 -41 -68
-27 -8 -89 -81 -107 -124 -19 -45 -51 -81 -74 -81 -25 0 -176 -78 -213 -110
-44 -39 -95 -57 -199 -70 -99 -12 -118 -6 -154 46 -10 15 -34 45 -54 66 l-37
38 -103 0 c-173 0 -202 -32 -203 -225 -1 -114 0 -123 29 -179 29 -58 54 -83
229 -231 97 -82 160 -105 290 -105 75 0 79 -1 112 -34 l34 -34 0 -345 c0 -334
-1 -347 -24 -428 -22 -76 -28 -86 -79 -130 -34 -31 -62 -66 -75 -96 -26 -61
-40 -73 -127 -107 -38 -15 -95 -45 -125 -66 -87 -62 -137 -82 -232 -93 -107
-13 -123 -7 -177 67 -55 74 -80 86 -187 86 -143 0 -186 -43 -197 -200 -11
-151 27 -240 149 -344 118 -101 160 -137 180 -150 37 -25 120 -45 214 -52 83
-6 98 -10 122 -32 l28 -26 0 -530 0 -531 23 -40 c13 -23 37 -48 57 -57 33 -17
177 -18 2578 -18 2529 0 2543 0 2582 20 26 13 47 34 60 60 19 38 20 58 20 568
l0 529 25 27 c20 22 33 26 77 26 134 1 247 34 309 92 14 13 39 34 55 47 62 49
174 163 190 194 35 66 44 125 34 223 -9 102 -14 116 -60 159 -29 28 -37 30
-125 33 -114 5 -149 -9 -190 -74 -54 -86 -85 -96 -224 -74 -66 11 -108 30
-176 80 -44 32 -116 69 -187 95 -40 15 -50 24 -71 69 -30 63 -70 112 -108 131
-22 12 -33 30 -50 83 -22 64 -23 85 -26 437 -3 344 -2 371 15 391 28 33 52 41
132 43 112 3 206 33 260 82 14 13 41 37 60 53 99 81 174 163 197 213 32 69 37
111 28 218 -7 84 -8 88 -49 131 l-43 44 -102 0 c-122 0 -149 -11 -187 -75 -14
-25 -39 -54 -55 -66 -28 -20 -35 -20 -117 -10 -98 13 -148 31 -210 78 -48 37
-180 103 -205 103 -19 0 -53 42 -90 109 -16 31 -45 64 -71 83 -41 28 -46 37
-65 108 -19 71 -21 104 -21 437 l0 360 25 25 c22 22 37 26 117 32 135 10 192
31 274 100 145 122 180 154 213 196 53 67 72 148 62 261 -9 95 -26 133 -75
167 -28 19 -45 22 -132 22 -117 0 -181 -23 -229 -84 l-30 -36 -46 24 c-83 45
-227 85 -373 105 -167 23 -230 41 -271 77 -46 41 -120 71 -235 94 -136 28
-150 33 -195 81 -46 49 -84 69 -197 104 -87 27 -96 33 -145 94 -15 19 -51 44
-79 57 -73 32 -90 61 -97 166 -6 94 -22 135 -63 167 -23 18 -40 21 -135 21
-107 0 -109 0 -143 -31z m1474 -1629 c19 -19 20 -33 20 -363 0 -294 -2 -346
-16 -365 l-15 -22 -1316 0 c-1211 0 -1318 1 -1335 17 -17 15 -18 40 -18 366 0
312 2 352 17 369 15 17 70 18 1330 18 1300 0 1313 0 1333 -20z m528 -1922 c9
-9 12 -105 12 -369 l0 -358 -22 -15 c-20 -14 -212 -16 -1852 -16 -1688 0
-1831 1 -1848 17 -17 15 -18 40 -18 373 0 263 3 359 12 368 17 17 3699 17
3716 0z m520 -1928 c22 -21 22 -21 22 -455 0 -422 -1 -436 -20 -455 -20 -20
-33 -20 -717 -20 -634 0 -698 1 -715 17 -17 15 -18 37 -18 287 0 262 -1 273
-22 316 -43 86 18 81 -920 78 -821 -3 -827 -3 -855 -24 -55 -41 -58 -55 -61
-359 -2 -240 -5 -282 -19 -297 -15 -17 -58 -18 -715 -18 -685 0 -698 0 -718
20 -19 19 -20 33 -20 455 0 422 1 436 20 455 20 20 33 20 2378 20 l2358 0 22
-20z"/>
<path d="M2665 5035 l-35 -36 0 -185 0 -186 34 -34 34 -34 102 0 102 0 34 34
34 34 0 186 0 185 -35 36 -36 35 -99 0 -99 0 -36 -35z"/>
<path d="M4065 5035 l-35 -36 0 -185 0 -186 34 -34 34 -34 102 0 102 0 34 34
34 34 0 186 0 185 -35 36 -36 35 -99 0 -99 0 -36 -35z"/>
<path d="M2669 3111 l-39 -39 0 -184 0 -185 35 -36 36 -37 98 0 98 0 36 37 37
36 0 185 0 184 -39 39 -39 39 -92 0 -92 0 -39 -39z"/>
<path d="M4069 3111 l-39 -39 0 -184 0 -185 35 -36 36 -37 98 0 98 0 36 37 37
36 0 185 0 184 -39 39 -39 39 -92 0 -92 0 -39 -39z"/>
</g>
</svg>
